<?xml version="1.0" encoding="utf-8"?>
<!-- Generator: Adobe Illustrator 22.0.1, SVG Export Plug-In . SVG Version: 6.00 Build 0)  -->
<svg version="1.1" id="レイヤー_1" xmlns="http://www.w3.org/2000/svg" xmlns:xlink="http://www.w3.org/1999/xlink" x="0px"
	 y="0px" viewBox="0 0 22 22" style="enable-background:new 0 0 22 22;" xml:space="preserve">
<style type="text/css">
	.st0{fill:none;stroke:#000000;stroke-width:2;stroke-linecap:round;stroke-linejoin:round;}
</style>
<path class="st0" d="M6,1h10c2.8,0,5,2.2,5,5v10c0,2.8-2.2,5-5,5H6c-2.8,0-5-2.2-5-5V6C1,3.2,3.2,1,6,1z"/>
<path class="st0" d="M15,10.4c0.3,2.2-1.2,4.2-3.4,4.5c-2.2,0.3-4.2-1.2-4.5-3.4C6.8,9.4,8.3,7.3,10.5,7c0.4-0.1,0.8-0.1,1.2,0
	C13.4,7.3,14.7,8.6,15,10.4z"/>
<circle cx="17.1" cy="5.3" r="1.2"/>
</svg>
