<svg xmlns="http://www.w3.org/2000/svg" viewBox="0 0 209 68.32"><defs><style>.cls-1{fill:#231815;}.cls-2{fill:#ed6d1f;}</style></defs><title>logo</title><g id="レイヤー_2" data-name="レイヤー 2"><g id="レイヤー_1-2" data-name="レイヤー 1"><polygon class="cls-1" points="52.17 62.62 52.17 48.51 64.22 48.51 64.22 50.33 54.66 50.33 54.65 54.5 63.8 54.5 63.79 56.28 54.65 56.28 54.65 60.79 64.23 60.79 64.22 62.62 52.17 62.62"/><path class="cls-1" d="M52.42,62.37V48.76H64v1.34H54.42v4.66h9.14V56H54.41v5H64v1.34Z"/><path class="cls-1" d="M79.51,62.62,78,59.76h-8.8l-1.39,2.86H65.2L72,48.51h3.16l7,14.11ZM70.08,58h7.16L73.6,50.58Z"/><path class="cls-1" d="M72.12,48.75H75l6.77,13.62H79.66l-1.47-2.86h-9.1L67.7,62.37H65.59Zm-2.43,9.47h7.94L73.6,50Z"/><path class="cls-1" d="M83.11,48.51H92a11.61,11.61,0,0,1,2.61.25,4.23,4.23,0,0,1,1.76.8,4,4,0,0,1,1.16,3.23,5.84,5.84,0,0,1-.18,1.55,2.54,2.54,0,0,1-.57,1.11,2.62,2.62,0,0,1-1.06.72l-.36.12a3.55,3.55,0,0,1,.91.47,2.32,2.32,0,0,1,1,2v3.9H94.75V59.39a2.24,2.24,0,0,0-.58-1.73,3.86,3.86,0,0,0-2.31-.47H85.62v5.43H83.12Zm8.71,6.81a4.31,4.31,0,0,0,2.62-.59A2.2,2.2,0,0,0,95,53v-.46h0a2.28,2.28,0,0,0-.45-1.64,2,2,0,0,0-.89-.39,7.22,7.22,0,0,0-1.61-.15H85.69v5Z"/><path class="cls-1" d="M92,48.75c2,0,3.4.33,4.21,1a3.73,3.73,0,0,1,1.07,3,3.65,3.65,0,0,1-.68,2.5,3.66,3.66,0,0,1-2.46,1,4.2,4.2,0,0,1,2,.69,2.07,2.07,0,0,1,.93,1.76v3.65H95v-3a2.45,2.45,0,0,0-.67-1.91,4,4,0,0,0-2.47-.54H85.38v5.43h-2V48.75Zm.07,1.34H85.45v5.47h6.38a4.61,4.61,0,0,0,2.78-.63,2.48,2.48,0,0,0,.67-2v-.45a2.52,2.52,0,0,0-.52-1.82A4.19,4.19,0,0,0,92.07,50.09Z"/><polygon class="cls-1" points="100.05 48.51 102.6 48.51 102.6 60.79 111.73 60.79 111.74 62.62 100.05 62.62 100.05 48.51"/><path class="cls-1" d="M100.29,48.75h2.07V61h9.13v1.34H100.29Z"/><polygon class="cls-1" points="114.32 62.62 114.33 56.77 107.46 48.51 110.45 48.51 115.68 54.77 120.89 48.51 123.99 48.51 116.87 56.78 116.88 62.62 114.32 62.62"/><path class="cls-1" d="M114.56,62.37V56.68L108,48.75h2.36l5.34,6.41,5.32-6.4h2.46l-6.83,7.94v5.68Z"/><path class="cls-1" d="M136.84,62.73h-.17a8.2,8.2,0,0,1-1.94-.19,6.14,6.14,0,0,1-1.93-.88,3.36,3.36,0,0,1-1.18-1.53,4.7,4.7,0,0,1-.4-1.84V52.92a4,4,0,0,1,1.22-3.15h0a4.5,4.5,0,0,1,1.38-.79,8.48,8.48,0,0,1,1.89-.44,30.06,30.06,0,0,1,3.68-.15h.22l1,0h1.17a4.73,4.73,0,0,1,2.55.71h0a3.14,3.14,0,0,1,1.3,1.68,6.67,6.67,0,0,1,.23,1.84h0l0,.58h-2.55v-.77a2.15,2.15,0,0,0-.6-1.81,6.25,6.25,0,0,0-2.7-.43h-.38c-1.46,0-2.46,0-2.95.07h0a4.23,4.23,0,0,0-2.21.68h0a2.22,2.22,0,0,0-.69,1.81v4.48c0,1.63.31,2.67.91,3.08a2.93,2.93,0,0,0,.9.42,5.76,5.76,0,0,0,1.48.15h1.46c.74,0,1.52,0,2.41,0a4.15,4.15,0,0,0,2.08-.52,1.24,1.24,0,0,0,.51-1.05h0v0c0-.28,0-.78.06-1.54v-.23h2.53v1a7,7,0,0,1-.16,1.64h0c-.37,1.31-1.48,2.11-3.3,2.4h0a20.89,20.89,0,0,1-2.5.16h0Z"/><path class="cls-1" d="M143.52,53v-.53a2.29,2.29,0,0,0-.72-2A5.83,5.83,0,0,0,140,50h-.38c-1.49,0-2.48,0-3,.08a4.39,4.39,0,0,0-2.34.73,2.39,2.39,0,0,0-.78,2v4.48c0,1.72.35,2.82,1,3.29a3.74,3.74,0,0,0,1,.45,7.06,7.06,0,0,0,1.78.16h1.23l2.41,0a4.24,4.24,0,0,0,2.22-.56,1.5,1.5,0,0,0,.61-1.25q0-.37.06-1.56h2v.78a6.86,6.86,0,0,1-.14,1.58c-.35,1.22-1.38,2-3.1,2.23a19.6,19.6,0,0,1-2.47.15h-3.3a8.34,8.34,0,0,1-2.05-.19,5.91,5.91,0,0,1-1.86-.85A3,3,0,0,1,131.85,60a4.28,4.28,0,0,1-.38-1.74V52.92a3.73,3.73,0,0,1,1.13-3,5.91,5.91,0,0,1,3.14-1.17,32,32,0,0,1,3.65-.14c.26,0,.65,0,1.18,0l1.17,0a4.49,4.49,0,0,1,2.42.67,2.9,2.9,0,0,1,1.21,1.55,6.23,6.23,0,0,1,.21,1.77V53Z"/><path class="cls-1" d="M159.36,62.62V59.39a2.17,2.17,0,0,0-.58-1.72h0a3.6,3.6,0,0,0-2.24-.48h-6.31v5.43h-2.51V48.51h8.88a11.64,11.64,0,0,1,2.62.25,4.07,4.07,0,0,1,1.75.8,2.83,2.83,0,0,1,.89,1.3,5.78,5.78,0,0,1,.28,1.93,5.89,5.89,0,0,1-.18,1.55,2.64,2.64,0,0,1-.57,1.12,2.82,2.82,0,0,1-1,.71l-.37.12a3.79,3.79,0,0,1,.92.47h0a2.32,2.32,0,0,1,1,2v3.9Zm-2.93-7.3a4.37,4.37,0,0,0,2.62-.59,2.19,2.19,0,0,0,.58-1.76v-.46h0a2.26,2.26,0,0,0-.44-1.63,4,4,0,0,0-2.5-.55H150.3v5Z"/><path class="cls-1" d="M156.6,48.75c2,0,3.42.33,4.22,1a3.7,3.7,0,0,1,1.08,3,3.7,3.7,0,0,1-.69,2.5,3.65,3.65,0,0,1-2.45,1,4.2,4.2,0,0,1,2,.69,2.07,2.07,0,0,1,.93,1.76v3.65h-2.06v-3a2.34,2.34,0,0,0-.66-1.9,3.79,3.79,0,0,0-2.46-.55H150v5.43h-2V48.75Zm.08,1.33h-6.62v5.47h6.37a4.57,4.57,0,0,0,2.77-.63,2.43,2.43,0,0,0,.68-2v-.45a2.42,2.42,0,0,0-.52-1.81A4.17,4.17,0,0,0,156.68,50.08Z"/><path class="cls-1" d="M170.1,62.74a13.18,13.18,0,0,1-2.95-.28,4.77,4.77,0,0,1-2-.86,4.16,4.16,0,0,1-1.29-3.44V53.32a8.61,8.61,0,0,1,.23-2.11,3.36,3.36,0,0,1,.7-1.43h0A3.49,3.49,0,0,1,166,49a7.18,7.18,0,0,1,1.71-.45,24.44,24.44,0,0,1,3.37-.14h.52a22.91,22.91,0,0,1,3,.14,4.64,4.64,0,0,1,2.9,1.22A3.18,3.18,0,0,1,178.2,51a8.27,8.27,0,0,1,.31,2.48v4.7a4.83,4.83,0,0,1-1,3.14h0A4,4,0,0,1,175,62.53a16.37,16.37,0,0,1-2.86.22H170.1Zm-3.7-4.64a4.14,4.14,0,0,0,.2,1.46h0a1.73,1.73,0,0,0,.57.8,2.28,2.28,0,0,0,1,.42h0a10.82,10.82,0,0,0,1.88.12h2.09a16.24,16.24,0,0,0,1.71-.07h0a2.33,2.33,0,0,0,1.53-.56h0a2.94,2.94,0,0,0,.62-2.08V53a5.32,5.32,0,0,0-.08-1,1.91,1.91,0,0,0-.71-1.14,3,3,0,0,0-1.53-.49h0c-.57,0-1.3-.08-2.24-.08H170.2a13.41,13.41,0,0,0-2,.11,1.87,1.87,0,0,0-1.69,1.77l-.09,1Z"/><path class="cls-1" d="M171.18,48.64a25.19,25.19,0,0,1,3.39.13,4.44,4.44,0,0,1,2.75,1.14,2.67,2.67,0,0,1,.64,1.18,7.86,7.86,0,0,1,.3,2.41v4.7a4.55,4.55,0,0,1-1,3A3.75,3.75,0,0,1,175,62.29a16.49,16.49,0,0,1-2.82.21H170.1c-2.27,0-3.87-.37-4.75-1.09a4,4,0,0,1-1.2-3.25V53.32a5.16,5.16,0,0,1,.87-3.38,4.43,4.43,0,0,1,2.73-1.17A27.28,27.28,0,0,1,171.18,48.64ZM170.4,50a14.27,14.27,0,0,0-2.27.11,2.11,2.11,0,0,0-1.88,2l-.1,1v5a4.33,4.33,0,0,0,.23,1.55A2.12,2.12,0,0,0,168.13,61a10.46,10.46,0,0,0,1.93.13H172a16.28,16.28,0,0,0,1.89-.07,2.67,2.67,0,0,0,1.68-.63,3.24,3.24,0,0,0,.69-2.25V53a4.76,4.76,0,0,0-.09-1.1,2.36,2.36,0,0,0-2.45-1.81c-.59-.06-1.34-.08-2.26-.08Z"/><path class="cls-1" d="M185.74,62.74a19.37,19.37,0,0,1-2.34-.11,5.58,5.58,0,0,1-2.12-.7,2.9,2.9,0,0,1-1.12-1.21,4,4,0,0,1-.37-1.79c0-.12,0-.4.06-.82l0-.22h2.56v.25a1,1,0,0,1-.06.34,4.65,4.65,0,0,0,.17,1.36,1.28,1.28,0,0,0,.46.69,2.56,2.56,0,0,0,1.42.36h.17l.83,0h2.33a6.7,6.7,0,0,0,2.89-.44,1.21,1.21,0,0,0,.52-.62,3.41,3.41,0,0,0,.19-1.26V58.4a3.11,3.11,0,0,0-.08-.85h0a1.09,1.09,0,0,0-.44-.66h0c-.27-.22-1-.49-3-.49H187a23.44,23.44,0,0,1-3.71-.23,6.25,6.25,0,0,1-2-.64,2.47,2.47,0,0,1-1.11-1.18,4.33,4.33,0,0,1-.31-1.67h0a3.77,3.77,0,0,1,1.46-3.41h0a6.47,6.47,0,0,1,2.7-.78h0c.52-.05,1.33-.07,2.78-.07H187c2.64,0,4.32.25,5.14.76a2.71,2.71,0,0,1,1.07,1.18,4,4,0,0,1,.36,1.77v.62H191v-.25a4.4,4.4,0,0,0-.08-1h0a1.19,1.19,0,0,0-.39-.72,3.44,3.44,0,0,0-1.71-.49,19.36,19.36,0,0,0-2-.06h-.52a15.29,15.29,0,0,0-2.3.11,3.54,3.54,0,0,0-1.12.4c-.3.17-.46.71-.46,1.56a3.08,3.08,0,0,0,.22,1.25,1.13,1.13,0,0,0,.6.6,9.54,9.54,0,0,0,3.14.38h1.23a18.37,18.37,0,0,1,3.11.17,4.78,4.78,0,0,1,1.7.6,2.79,2.79,0,0,1,1,1.11h0a4.92,4.92,0,0,1,.37,2.12,5.33,5.33,0,0,1-.4,2.21,2.74,2.74,0,0,1-1.27,1.33,8.64,8.64,0,0,1-3.45.65c-.39,0-1,0-1.72,0h-1.3Z"/><path class="cls-1" d="M186.84,48.64c2.64,0,4.36.23,5.14.72a2.94,2.94,0,0,1,1.31,2.74v.37h-2a5.17,5.17,0,0,0-.08-1,1.61,1.61,0,0,0-.47-.86,3.61,3.61,0,0,0-1.85-.55c-.31,0-1-.05-2-.05h-.52a17,17,0,0,0-2.35.11,4.22,4.22,0,0,0-1.2.42c-.38.23-.57.82-.57,1.78s.32,1.8,1,2.07a9.23,9.23,0,0,0,3.23.4h1.11a19.34,19.34,0,0,1,3.19.17,3.32,3.32,0,0,1,2.57,1.58,4.52,4.52,0,0,1,.34,2c0,1.69-.5,2.81-1.53,3.33a8.6,8.6,0,0,1-3.35.61c-.58,0-1.34,0-2.27,0h-.74a16.39,16.39,0,0,1-2.31-.11,5.12,5.12,0,0,1-2-.66A3,3,0,0,1,180,58.93c0-.1,0-.37.05-.8h2.09a1.31,1.31,0,0,1-.06.31c0,1.2.24,2,.74,2.29a2.7,2.7,0,0,0,1.55.41c.24,0,.56,0,1,0l1,0h1.36a6.86,6.86,0,0,0,3-.47c.54-.3.84-1,.83-2.1V58.4a3.7,3.7,0,0,0-.08-.93,1.34,1.34,0,0,0-.54-.8c-.44-.36-1.47-.54-3.14-.54H187a22.53,22.53,0,0,1-3.67-.23c-1.59-.27-2.58-.82-2.94-1.67a4.32,4.32,0,0,1-.29-1.58,3.51,3.51,0,0,1,1.36-3.2,6.13,6.13,0,0,1,2.59-.75C184.64,48.65,185.55,48.64,186.84,48.64Z"/><path class="cls-1" d="M201.75,62.74h-1.26a14,14,0,0,1-2-.1,5.56,5.56,0,0,1-2.13-.7,3.19,3.19,0,0,1-1.5-3c0-.06,0-.3,0-.83l0-.22h2.55v.24a1.09,1.09,0,0,1-.06.34h0a4.68,4.68,0,0,0,.17,1.37,1.33,1.33,0,0,0,.46.69,2.55,2.55,0,0,0,1.4.35H200l.53,0h2.34a6.58,6.58,0,0,0,2.88-.44,1.14,1.14,0,0,0,.52-.61,3.63,3.63,0,0,0,.19-1.26V58.4a3.43,3.43,0,0,0-.08-.87,1.19,1.19,0,0,0-.44-.67h0a6.46,6.46,0,0,0-3-.49h-.83a23.37,23.37,0,0,1-3.66-.22,6.13,6.13,0,0,1-2-.66,2.48,2.48,0,0,1-1.11-1.16h0a4.66,4.66,0,0,1-.3-1.67h0a3.77,3.77,0,0,1,1.45-3.4h0a6.6,6.6,0,0,1,2.7-.78c.51,0,1.35-.07,2.8-.08h0c2.72,0,4.44.26,5.26.77a3.18,3.18,0,0,1,1.42,2.94v.63h-2.51v-.24a6.8,6.8,0,0,0-.06-1,1.46,1.46,0,0,0-.4-.74,3.55,3.55,0,0,0-1.72-.48h0c-.32,0-1-.06-2-.06h-.5a16.19,16.19,0,0,0-2.32.11,3.79,3.79,0,0,0-1.11.39c-.3.19-.46.74-.45,1.57h0a2.85,2.85,0,0,0,.21,1.24,1.19,1.19,0,0,0,.62.61,8.82,8.82,0,0,0,3.06.38h1.28a19.71,19.71,0,0,1,3.13.17h0a4.8,4.8,0,0,1,1.69.6,2.78,2.78,0,0,1,1,1.09h0A5.1,5.1,0,0,1,209,58.5h0c0,1.79-.57,3-1.68,3.54a8.69,8.69,0,0,1-3.46.65c-.7,0-1.39,0-2.11,0Z"/><path class="cls-1" d="M202,48.63c2.63,0,4.35.24,5.14.73a3,3,0,0,1,1.29,2.73v.38h-2a8,8,0,0,0-.06-1,1.69,1.69,0,0,0-.48-.86A3.55,3.55,0,0,0,204,50c-.29,0-1-.05-2-.05h-.5a15.49,15.49,0,0,0-2.36.11,3.87,3.87,0,0,0-1.19.42c-.38.23-.59.82-.58,1.78s.32,1.79,1,2.07a9,9,0,0,0,3.21.4h1.13a20.83,20.83,0,0,1,3.19.17,3.32,3.32,0,0,1,2.55,1.56,4.86,4.86,0,0,1,.36,2c0,1.69-.51,2.81-1.54,3.33a8.66,8.66,0,0,1-3.36.61c-.57,0-1.33,0-2.27,0h-.73a14.53,14.53,0,0,1-2.29-.11,5.22,5.22,0,0,1-2-.66,2.93,2.93,0,0,1-1.37-2.78c0-.11,0-.39,0-.81h2.08a1.44,1.44,0,0,1-.05.31c0,1.2.25,2,.73,2.29a2.77,2.77,0,0,0,1.57.4l1,0c.44,0,.77,0,1,0h.69c.3,0,.52,0,.68,0a6.87,6.87,0,0,0,3-.47c.55-.3.83-1,.84-2.09V58.4a4.13,4.13,0,0,0-.09-.93,1.39,1.39,0,0,0-.54-.8c-.44-.36-1.49-.53-3.14-.54h-.78a23.88,23.88,0,0,1-3.67-.22c-1.62-.28-2.59-.84-2.95-1.68a4.35,4.35,0,0,1-.28-1.59,3.51,3.51,0,0,1,1.34-3.19,6.05,6.05,0,0,1,2.6-.74C199.74,48.66,200.67,48.64,202,48.63Z"/><path class="cls-1" d="M28,8.33C49.74,1.63,72,11.19,77.67,29.67a30.67,30.67,0,0,1,.78,14.69,31.35,31.35,0,0,0,1-20.87C73.74,5,51.53-4.56,29.79,2.14,13.79,7.07,2.53,19.47,0,33.05,4.34,22,14.49,12.5,28,8.33Z"/><path class="cls-2" d="M40.93,43.68C46.08,26.4,71.4,11.09,97.5,9.48A59.73,59.73,0,0,1,115.94,11C109.39,8.08,100.85,6.65,91,7.25,64.91,8.87,39.6,24.18,34.45,41.46c-3.78,12.75,4.48,23,19.54,26.86C43.14,63.46,37.73,54.47,40.93,43.68Z"/></g></g></svg>