<?xml version="1.0" encoding="utf-8"?>
<!-- Generator: Adobe Illustrator 22.0.1, SVG Export Plug-In . SVG Version: 6.00 Build 0)  -->
<svg version="1.1" id="_x32_" xmlns="http://www.w3.org/2000/svg" xmlns:xlink="http://www.w3.org/1999/xlink" x="0px" y="0px"
	 viewBox="0 0 512 384.5" style="enable-background:new 0 0 512 384.5;" xml:space="preserve">
<style type="text/css">
	.st0{fill:#4B4B4B;}
</style>
<g>
	<polygon class="st0" points="512,232.2 445.9,163.5 512,106.6 	"/>
	<polygon class="st0" points="66.2,163.5 0,232.3 0,106.6 	"/>
	<path class="st0" d="M512,294.6v63.2c0,15.3-12.4,27.7-27.7,27.7H27.7C12.4,385.5,0,373.1,0,357.8v-63.2l99-102.7l113,97.4
		c11.8,10.1,27.4,15.7,44,15.7s32.3-5.6,44.1-15.7l113-97.4L512,294.6z"/>
	<path class="st0" d="M512,28.1v27.7l-241.4,208c-7.8,6.7-21.4,6.7-29.1,0L0,55.8V28.1C0,12.8,12.4,0.5,27.7,0.5h456.6
		C499.6,0.5,512,12.8,512,28.1z"/>
</g>
</svg>
