<?xml version="1.0" encoding="utf-8"?>
<!-- Generator: Adobe Illustrator 22.0.1, SVG Export Plug-In . SVG Version: 6.00 Build 0)  -->
<svg version="1.1" id="_x32_" xmlns="http://www.w3.org/2000/svg" xmlns:xlink="http://www.w3.org/1999/xlink" x="0px" y="0px"
	 viewBox="0 0 417.3 512" style="enable-background:new 0 0 417.3 512;" xml:space="preserve">
<style type="text/css">
	.st0{fill:#4B4B4B;}
</style>
<g>
	<path class="st0" d="M331.4,0H161.3h-13.2l-9.3,9.3L10,138.1l-9.3,9.3v13.2v265.5c0,47.4,38.5,85.9,85.9,85.9h244.8
		c47.4,0,85.9-38.5,85.9-85.9V85.9C417.3,38.5,378.8,0,331.4,0z M385.5,426.1c0,29.9-24.2,54.1-54.1,54.1H86.6
		c-29.9,0-54.1-24.2-54.1-54.1V160.6h83.7c24.9,0,45.1-20.2,45.1-45.1V31.8h170.1c29.9,0,54.1,24.2,54.1,54.1V426.1z"/>
	<path class="st0" d="M124.9,252.8H96.4c-5.4,0-8.7,3.5-8.7,8.8v73.8c0,6.4,4.2,10.6,10,10.6c5.7,0,9.9-4.2,9.9-10.6V313
		c0-0.5,0.3-0.8,0.8-0.8h16.4c20.1,0,32.2-12.2,32.2-29.6C157.1,264.9,145.2,252.8,124.9,252.8z M123.7,294.9h-15.2
		c-0.5,0-0.8-0.3-0.8-0.8v-23.2c0-0.5,0.3-0.8,0.8-0.8h15.2c8.4,0,13.4,5,13.4,12.5C137.2,290,132.1,294.9,123.7,294.9z"/>
	<path class="st0" d="M203.2,252.8h-21.9c-5.4,0-8.7,3.5-8.7,8.8v74.8c0,5.3,3.3,8.7,8.7,8.7h21.9c19.7,0,31.9-6.2,36.8-21.3
		c1.8-5.3,2.7-11.7,2.7-24.9c0-13.2-1-19.6-2.7-24.9C235.1,259,222.9,252.8,203.2,252.8z M220.9,316.9c-2.3,7.3-9,10.5-18.2,10.5
		h-9.2c-0.5,0-0.8-0.3-0.8-0.8v-55.1c0-0.5,0.3-0.8,0.8-0.8h9.2c9.2,0,15.9,3.1,18.2,10.5c1,3.1,1.6,8.6,1.6,17.9
		C222.5,308.3,221.8,313.8,220.9,316.9z"/>
	<path class="st0" d="M314.2,252.8h-44.8c-5.4,0-8.7,3.5-8.7,8.8v73.8c0,6.4,4.2,10.6,10.1,10.6c5.7,0,9.9-4.2,9.9-10.6V309
		c0-0.5,0.3-0.8,0.8-0.8h26.1c5.8,0,9.2-3.5,9.2-8.6c0-5-3.4-8.6-9.2-8.6h-26.1c-0.5,0-0.8-0.3-0.8-0.8v-19.4c0-0.5,0.3-0.8,0.8-0.8
		h32.7c5.6,0,9.2-3.7,9.2-8.6C323.4,256.5,319.7,252.8,314.2,252.8z"/>
</g>
</svg>
