<svg xmlns="http://www.w3.org/2000/svg" viewBox="0 0 150 126.78"><title>アセット 2</title><g id="レイヤー_2" data-name="レイヤー 2"><g id="_1" data-name="1"><path d="M35.94,33A15.29,15.29,0,1,0,20.65,17.71,15.3,15.3,0,0,0,35.94,33Z"/><path d="M79.29,33.83,89.45,22.7l18.34-5.4a3.34,3.34,0,0,0,.72.83l2,1.53,1.84-2.42-1.25-.95a8.19,8.19,0,0,0,5.2-9.1s.06-.06.1-.06a.47.47,0,0,1,.38.1l2,1.53,1.84-2.42-2-1.54A3.57,3.57,0,0,0,116,4.11a4.26,4.26,0,0,0-.76.26,8.17,8.17,0,0,0-8.68-3.8L86.88,4.8a20.84,20.84,0,0,0-9.24,4.6l-17,14.71L66.55,49.8,43.06,39.3,28.91,51.54,6.67,55.47A8.23,8.23,0,1,0,9.79,71.63L30.53,69.9a20.89,20.89,0,0,0,11-4.45L53.1,57l12.83,14L52.11,82a11.5,11.5,0,0,0-.59,17.2L82.68,124a9.23,9.23,0,0,0,13.14-13L71.51,90.62,90.07,80.8,129,123.44a9.23,9.23,0,0,0,13.84-12.22Z"/><polygon points="57.45 43.18 63.22 45.75 61.8 39.61 52.1 29.14 47.89 32.86 57.45 43.18"/><path d="M108.75,33.28l2.54,1.93L124.1,23.77l-.22-.16a1.61,1.61,0,0,1-.3-2.24l2.16-2.84a1.6,1.6,0,0,1,2.24-.3l.22.16,7.62-15.5L133.31,1a4.79,4.79,0,0,0-6.72.91L107.83,26.57A4.79,4.79,0,0,0,108.75,33.28Z"/><path d="M148.11,12.23l-10.39-7.9-7.63,15.5,2.52,1.92a1.6,1.6,0,0,1,.31,2.24l-2.16,2.84a1.6,1.6,0,0,1-2.24.3L126,25.21,113.19,36.65l10.36,7.88a4.8,4.8,0,0,0,6.72-.91L149,18.94A4.78,4.78,0,0,0,148.11,12.23Z"/><rect x="126.56" y="19.86" width="3.38" height="5.64" transform="translate(32.54 111.01) rotate(-52.73)"/></g></g></svg>