<svg xmlns="http://www.w3.org/2000/svg" viewBox="0 0 150 134.47"><title>アセット 1</title><g id="レイヤー_2" data-name="レイヤー 2"><g id="_1" data-name="1"><rect y="132.47" width="150" height="2"/><path d="M33,105.67v17.8H56V100.08A202.54,202.54,0,0,1,33,105.67Z"/><path d="M2,108.87v14.6H25V106.85A211.35,211.35,0,0,1,2,108.87Z"/><path d="M63,97.68v25.79H86V87.94A194.2,194.2,0,0,1,63,97.68Z"/><path d="M94,84.13v39.34h23V68.91A182.81,182.81,0,0,1,94,84.13Z"/><path d="M124,63.09v60.38h23V38.86A168,168,0,0,1,124,63.09Z"/><path d="M121,9l8.1,6.79C103.4,47.87,54.31,88.52,0,94.57v6.49C53.87,99.15,111.65,62.25,141.66,26.3l8.34,7V0Z"/></g></g></svg>