<svg xmlns="http://www.w3.org/2000/svg" viewBox="0 0 150 150"><title>アセット 3</title><g id="レイヤー_2" data-name="レイヤー 2"><g id="_1" data-name="1"><path d="M23.5,33.3C33.91,33.3,36,25.2,36,20.79V16.52C36,12.11,33.91,4,23.5,4S11,12.11,11,16.52v4.27C11,25.2,13.09,33.3,23.5,33.3Z"/><path d="M72.16,54.12,54.82,62.63,45.31,47.11C42.52,42.55,38.92,39,33.8,39h-19C6.62,39,0,46.16,0,55v46H10v49h9.89L26,105.51,32.11,150H42V67.82l8.37,9.69L76.83,61.14Z"/><path d="M150,14V7H105V0H96V7H51v7h5V55l.82,1.25L61,54.37V14h80V84H61V76.21L56,79.1V84H51v7H98v18.89L82.36,140.56a4.62,4.62,0,1,0,5.1,4.59,4.55,4.55,0,0,0-.83-2.64L98,120v23h5V120.55l11.69,22.08a4.64,4.64,0,1,0,4.2-2.08L103,110.45V91h47V84h-5V14Z"/><path d="M108,24.2v19l17.91-6.33A19,19,0,0,0,108,24.2Z"/><path d="M82,54.43a19,19,0,0,0,37.63,3.77,18.64,18.64,0,0,0-.71-10.09L101,54.43v-19A19,19,0,0,0,82,54.43Z"/></g></g></svg>