<?xml version="1.0" encoding="utf-8"?>
<!-- Generator: Adobe Illustrator 22.0.1, SVG Export Plug-In . SVG Version: 6.00 Build 0)  -->
<svg version="1.1" id="_x32_" xmlns="http://www.w3.org/2000/svg" xmlns:xlink="http://www.w3.org/1999/xlink" x="0px" y="0px"
	 viewBox="0 0 512 421.8" style="enable-background:new 0 0 512 421.8;" xml:space="preserve">
<style type="text/css">
	.st0{fill:#4B4B4B;}
</style>
<g>
	<path class="st0" d="M337.5,162.9V83.2l-42.8,7.7v32.8h-77.3V90.8l-42.8-7.7v79.7h-50.9L65.6,290v25.1v18.1v53.5v7.1v10.3
		c0,10.9,8,19.7,17.9,19.7h345.1c9.9,0,17.9-8.8,17.9-19.7v-10.3v-7.1v-53.5v-18.1V290l-58.8-127.1H337.5z M256,366.9
		c-39.9,0-72.3-32.4-72.3-72.3s32.4-72.3,72.3-72.3s72.3,32.4,72.3,72.3S295.9,366.9,256,366.9z"/>
	<path class="st0" d="M434,26.9C395.5,10.6,310.8,1,256,1c-53,0-139.5,9.6-178,25.9C39,43.4,0,80.4,0,124
		c0,23.9,11.9,38.1,14.8,41.4c0,0,16.3,0,20.7,0h24.3c13.4,0,29.3,0,37.9,0c4.9,0,15.7-21.4,15.7-30.2c0-15.4-8.1-36.8-8.1-36.8
		c0.5-10.6,4.7-18.3,21.9-25.7c31.3-13.4,100-14,128.8-14c28.8,0,97.6,0.6,128.8,14c17.2,7.4,21.4,15.1,21.9,25.7
		c0,0-8.1,21.4-8.1,36.8c0,8.7,10.8,30.2,15.7,30.2c8.6,0,24.6,0,37.9,0h24.3c4.3,0,20.7,0,20.7,0c2.8-3.3,14.8-17.5,14.8-41.4
		C512,80.4,473,43.4,434,26.9z"/>
</g>
</svg>
