<svg xmlns="http://www.w3.org/2000/svg" style="display:none"><defs/><symbol id="arrow_b1" viewBox="0 0 512 331.8"><path d="M440.2 3L256 187.2 71.8 3 0 74.8l256 256 256-256z"/></symbol><symbol id="arrow_l1" viewBox="0 0 324.8 512"><path d="M325.8 71.8L254 0-2 256l256 256 71.8-71.8L141.7 256z"/></symbol><symbol id="arrow_r1" viewBox="0 0 327.3 512"><path d="M70.8 0L-1 71.8 183.2 256-1 440.2 70.8 512l256-256z"/></symbol><symbol id="arrow_t1" viewBox="0 0 512 328.7"><path d="M256 2L0 258l71.8 71.8L256 145.7l184.2 184.1L512 258z"/></symbol><symbol id="chevron-down" viewBox="0 0 14 8"><path stroke-width="2" stroke-linecap="round" stroke-linejoin="round" d="M1 1l6 6 6-6"/></symbol><symbol id="chevron-left" viewBox="0 0 8.1 14.1"><path stroke-width="2" stroke-linecap="round" stroke-linejoin="round" d="M7.1 13.1l-6-6 6-6"/></symbol><symbol id="chevron-right" viewBox="0 0 8 14"><path stroke-width="2" stroke-linecap="round" stroke-linejoin="round" d="M1 13l6-6-6-6"/></symbol><symbol id="chevron-up" viewBox="0 0 14.1 8.1"><path stroke-width="2" stroke-linecap="round" stroke-linejoin="round" d="M13 7L7 1 1 7"/></symbol><symbol id="home"><path d="M3 9l9-7 9 7v11a2 2 0 0 1-2 2H5a2 2 0 0 1-2-2z"/><path d="M9 22V12h6v10"/></symbol><symbol id="home2"><path d="M256.031 7.375L0 190.313v314.312h201.609V336.672h108.782v167.953H512V190.313z"/></symbol><symbol id="instagram" viewBox="0 0 22 22"><rect class="cls-1" x="1" y="1" width="20" height="20" rx="5" ry="5"/><path class="cls-1" d="M16 11.37A4 4 0 1 1 11.46 8a3.83 3.83 0 0 1 1.17 0A4 4 0 0 1 16 11.37z" transform="translate(-1 -1)"/><circle class="cls-circle-1" cx="17.12" cy="5.27" r="1.18" style="fill: #fff;"/></symbol><symbol id="logo" viewBox="0 0 209 68.32"><g id="&#x30EC;&#x30A4;&#x30E4;&#x30FC;_2" data-name="&#x30EC;&#x30A4;&#x30E4;&#x30FC; 2"><g id="&#x30EC;&#x30A4;&#x30E4;&#x30FC;_1-2" data-name="&#x30EC;&#x30A4;&#x30E4;&#x30FC; 1"><path class="cls-1" d="M52.17 62.62V48.51h12.05v1.82h-9.56l-.01 4.17h9.15l-.01 1.78h-9.14v4.51h9.58l-.01 1.83H52.17z"/><path class="cls-1" d="M52.42 62.37V48.76H64v1.34h-9.58v4.66h9.14V56h-9.15v5H64v1.34zM79.51 62.62L78 59.76h-8.8l-1.39 2.86H65.2L72 48.51h3.16l7 14.11zM70.08 58h7.16l-3.64-7.42z"/><path class="cls-1" d="M72.12 48.75H75l6.77 13.62h-2.11l-1.47-2.86h-9.1l-1.39 2.86h-2.11zm-2.43 9.47h7.94L73.6 50zM83.11 48.51H92a11.61 11.61 0 0 1 2.61.25 4.23 4.23 0 0 1 1.76.8 4 4 0 0 1 1.16 3.23 5.84 5.84 0 0 1-.18 1.55 2.54 2.54 0 0 1-.57 1.11 2.62 2.62 0 0 1-1.06.72l-.36.12a3.55 3.55 0 0 1 .91.47 2.32 2.32 0 0 1 1 2v3.9h-2.52v-3.27a2.24 2.24 0 0 0-.58-1.73 3.86 3.86 0 0 0-2.31-.47h-6.24v5.43h-2.5zm8.71 6.81a4.31 4.31 0 0 0 2.62-.59A2.2 2.2 0 0 0 95 53v-.46a2.28 2.28 0 0 0-.45-1.64 2 2 0 0 0-.89-.39 7.22 7.22 0 0 0-1.61-.15h-6.36v5z"/><path class="cls-1" d="M92 48.75c2 0 3.4.33 4.21 1a3.73 3.73 0 0 1 1.07 3 3.65 3.65 0 0 1-.68 2.5 3.66 3.66 0 0 1-2.46 1 4.2 4.2 0 0 1 2 .69 2.07 2.07 0 0 1 .93 1.76v3.65H95v-3a2.45 2.45 0 0 0-.67-1.91 4 4 0 0 0-2.47-.54h-6.48v5.43h-2V48.75zm.07 1.34h-6.62v5.47h6.38a4.61 4.61 0 0 0 2.78-.63 2.48 2.48 0 0 0 .67-2v-.45a2.52 2.52 0 0 0-.52-1.82 4.19 4.19 0 0 0-2.69-.57zM100.05 48.51h2.55v12.28h9.13l.01 1.83h-11.69V48.51z"/><path class="cls-1" d="M100.29 48.75h2.07V61h9.13v1.34h-11.2zM114.32 62.62l.01-5.85-6.87-8.26h2.99l5.23 6.26 5.21-6.26h3.1l-7.12 8.27.01 5.84h-2.56z"/><path class="cls-1" d="M114.56 62.37v-5.69L108 48.75h2.36l5.34 6.41 5.32-6.4h2.46l-6.83 7.94v5.68zM136.84 62.73h-.17a8.2 8.2 0 0 1-1.94-.19 6.14 6.14 0 0 1-1.93-.88 3.36 3.36 0 0 1-1.18-1.53 4.7 4.7 0 0 1-.4-1.84v-5.37a4 4 0 0 1 1.22-3.15 4.5 4.5 0 0 1 1.38-.79 8.48 8.48 0 0 1 1.89-.44 30.06 30.06 0 0 1 3.68-.15H141.78a4.73 4.73 0 0 1 2.55.71 3.14 3.14 0 0 1 1.3 1.68 6.67 6.67 0 0 1 .23 1.84v.58h-2.55v-.77a2.15 2.15 0 0 0-.6-1.81 6.25 6.25 0 0 0-2.7-.43h-.38c-1.46 0-2.46 0-2.95.07a4.23 4.23 0 0 0-2.21.68 2.22 2.22 0 0 0-.69 1.81v4.48c0 1.63.31 2.67.91 3.08a2.93 2.93 0 0 0 .9.42 5.76 5.76 0 0 0 1.48.15h3.87a4.15 4.15 0 0 0 2.08-.52 1.24 1.24 0 0 0 .51-1.05c0-.28 0-.78.06-1.54v-.23h2.53v1a7 7 0 0 1-.16 1.64c-.37 1.31-1.48 2.11-3.3 2.4a20.89 20.89 0 0 1-2.5.16z"/><path class="cls-1" d="M143.52 53v-.53a2.29 2.29 0 0 0-.72-2A5.83 5.83 0 0 0 140 50h-.38c-1.49 0-2.48 0-3 .08a4.39 4.39 0 0 0-2.34.73 2.39 2.39 0 0 0-.78 2v4.48c0 1.72.35 2.82 1 3.29a3.74 3.74 0 0 0 1 .45 7.06 7.06 0 0 0 1.78.16h3.64a4.24 4.24 0 0 0 2.22-.56 1.5 1.5 0 0 0 .61-1.25q0-.37.06-1.56h2v.78a6.86 6.86 0 0 1-.14 1.58c-.35 1.22-1.38 2-3.1 2.23a19.6 19.6 0 0 1-2.47.15h-3.3a8.34 8.34 0 0 1-2.05-.19 5.91 5.91 0 0 1-1.86-.85 3 3 0 0 1-1.04-1.52 4.28 4.28 0 0 1-.38-1.74v-5.34a3.73 3.73 0 0 1 1.13-3 5.91 5.91 0 0 1 3.14-1.17 32 32 0 0 1 3.65-.14H141.74a4.49 4.49 0 0 1 2.42.67 2.9 2.9 0 0 1 1.21 1.55 6.23 6.23 0 0 1 .21 1.77v.4zM159.36 62.62v-3.23a2.17 2.17 0 0 0-.58-1.72 3.6 3.6 0 0 0-2.24-.48h-6.31v5.43h-2.51V48.51h8.88a11.64 11.64 0 0 1 2.62.25 4.07 4.07 0 0 1 1.75.8 2.83 2.83 0 0 1 .89 1.3 5.78 5.78 0 0 1 .28 1.93 5.89 5.89 0 0 1-.18 1.55 2.64 2.64 0 0 1-.57 1.12 2.82 2.82 0 0 1-1 .71l-.37.12a3.79 3.79 0 0 1 .92.47 2.32 2.32 0 0 1 1 2v3.9zm-2.93-7.3a4.37 4.37 0 0 0 2.62-.59 2.19 2.19 0 0 0 .58-1.76v-.46a2.26 2.26 0 0 0-.44-1.63 4 4 0 0 0-2.5-.55h-6.39v5z"/><path class="cls-1" d="M156.6 48.75c2 0 3.42.33 4.22 1a3.7 3.7 0 0 1 1.08 3 3.7 3.7 0 0 1-.69 2.5 3.65 3.65 0 0 1-2.45 1 4.2 4.2 0 0 1 2 .69 2.07 2.07 0 0 1 .93 1.76v3.65h-2.06v-3a2.34 2.34 0 0 0-.66-1.9 3.79 3.79 0 0 0-2.46-.55H150v5.43h-2V48.75zm.08 1.33h-6.62v5.47h6.37a4.57 4.57 0 0 0 2.77-.63 2.43 2.43 0 0 0 .68-2v-.45a2.42 2.42 0 0 0-.52-1.81 4.17 4.17 0 0 0-2.68-.58zM170.1 62.74a13.18 13.18 0 0 1-2.95-.28 4.77 4.77 0 0 1-2-.86 4.16 4.16 0 0 1-1.29-3.44v-4.84a8.61 8.61 0 0 1 .23-2.11 3.36 3.36 0 0 1 .7-1.43A3.49 3.49 0 0 1 166 49a7.18 7.18 0 0 1 1.71-.45 24.44 24.44 0 0 1 3.37-.14h.52a22.91 22.91 0 0 1 3 .14 4.64 4.64 0 0 1 2.9 1.22 3.18 3.18 0 0 1 .7 1.23 8.27 8.27 0 0 1 .31 2.48v4.7a4.83 4.83 0 0 1-1 3.14 4 4 0 0 1-2.51 1.21 16.37 16.37 0 0 1-2.86.22h-2.04zm-3.7-4.64a4.14 4.14 0 0 0 .2 1.46 1.73 1.73 0 0 0 .57.8 2.28 2.28 0 0 0 1 .42 10.82 10.82 0 0 0 1.88.12h2.09a16.24 16.24 0 0 0 1.71-.07 2.33 2.33 0 0 0 1.53-.56 2.94 2.94 0 0 0 .62-2.08V53a5.32 5.32 0 0 0-.08-1 1.91 1.91 0 0 0-.71-1.14 3 3 0 0 0-1.53-.49c-.57 0-1.3-.08-2.24-.08h-1.24a13.41 13.41 0 0 0-2 .11 1.87 1.87 0 0 0-1.69 1.77l-.09 1z"/><path class="cls-1" d="M171.18 48.64a25.19 25.19 0 0 1 3.39.13 4.44 4.44 0 0 1 2.75 1.14 2.67 2.67 0 0 1 .64 1.18 7.86 7.86 0 0 1 .3 2.41v4.7a4.55 4.55 0 0 1-1 3 3.75 3.75 0 0 1-2.26 1.09 16.49 16.49 0 0 1-2.82.21h-2.08c-2.27 0-3.87-.37-4.75-1.09a4 4 0 0 1-1.2-3.25v-4.84a5.16 5.16 0 0 1 .87-3.38 4.43 4.43 0 0 1 2.73-1.17 27.28 27.28 0 0 1 3.43-.13zM170.4 50a14.27 14.27 0 0 0-2.27.11 2.11 2.11 0 0 0-1.88 2l-.1 1v5a4.33 4.33 0 0 0 .23 1.55 2.12 2.12 0 0 0 1.75 1.34 10.46 10.46 0 0 0 1.93.13H172a16.28 16.28 0 0 0 1.89-.07 2.67 2.67 0 0 0 1.68-.63 3.24 3.24 0 0 0 .69-2.25V53a4.76 4.76 0 0 0-.09-1.1 2.36 2.36 0 0 0-2.45-1.81c-.59-.06-1.34-.08-2.26-.08zM185.74 62.74a19.37 19.37 0 0 1-2.34-.11 5.58 5.58 0 0 1-2.12-.7 2.9 2.9 0 0 1-1.12-1.21 4 4 0 0 1-.37-1.79c0-.12 0-.4.06-.82v-.22h2.56v.25a1 1 0 0 1-.06.34 4.65 4.65 0 0 0 .17 1.36 1.28 1.28 0 0 0 .46.69 2.56 2.56 0 0 0 1.42.36h3.33a6.7 6.7 0 0 0 2.89-.44 1.21 1.21 0 0 0 .52-.62 3.41 3.41 0 0 0 .19-1.26v-.17a3.11 3.11 0 0 0-.08-.85 1.09 1.09 0 0 0-.44-.66c-.27-.22-1-.49-3-.49H187a23.44 23.44 0 0 1-3.71-.23 6.25 6.25 0 0 1-2-.64 2.47 2.47 0 0 1-1.11-1.18 4.33 4.33 0 0 1-.31-1.67 3.77 3.77 0 0 1 1.46-3.41 6.47 6.47 0 0 1 2.7-.78c.52-.05 1.33-.07 2.78-.07h.19c2.64 0 4.32.25 5.14.76a2.71 2.71 0 0 1 1.07 1.18 4 4 0 0 1 .36 1.77v.62H191v-.25a4.4 4.4 0 0 0-.08-1 1.19 1.19 0 0 0-.39-.72 3.44 3.44 0 0 0-1.71-.49 19.36 19.36 0 0 0-2-.06h-.52a15.29 15.29 0 0 0-2.3.11 3.54 3.54 0 0 0-1.12.4c-.3.17-.46.71-.46 1.56a3.08 3.08 0 0 0 .22 1.25 1.13 1.13 0 0 0 .6.6 9.54 9.54 0 0 0 3.14.38h1.23a18.37 18.37 0 0 1 3.11.17 4.78 4.78 0 0 1 1.7.6 2.79 2.79 0 0 1 1 1.11 4.92 4.92 0 0 1 .37 2.12 5.33 5.33 0 0 1-.4 2.21 2.74 2.74 0 0 1-1.27 1.33 8.64 8.64 0 0 1-3.45.65h-3.02z"/><path class="cls-1" d="M186.84 48.64c2.64 0 4.36.23 5.14.72a2.94 2.94 0 0 1 1.31 2.74v.37h-2a5.17 5.17 0 0 0-.08-1 1.61 1.61 0 0 0-.47-.86 3.61 3.61 0 0 0-1.85-.55c-.31 0-1-.05-2-.05h-.52a17 17 0 0 0-2.35.11 4.22 4.22 0 0 0-1.2.42c-.38.23-.57.82-.57 1.78s.32 1.8 1 2.07a9.23 9.23 0 0 0 3.23.4h1.11a19.34 19.34 0 0 1 3.19.17 3.32 3.32 0 0 1 2.57 1.58 4.52 4.52 0 0 1 .34 2c0 1.69-.5 2.81-1.53 3.33a8.6 8.6 0 0 1-3.35.61h-3.01a16.39 16.39 0 0 1-2.31-.11 5.12 5.12 0 0 1-2-.66 3 3 0 0 1-1.49-2.78c0-.1 0-.37.05-.8h2.09a1.31 1.31 0 0 1-.06.31c0 1.2.24 2 .74 2.29a2.7 2.7 0 0 0 1.55.41H187.73a6.86 6.86 0 0 0 3-.47c.54-.3.84-1 .83-2.1v-.17a3.7 3.7 0 0 0-.08-.93 1.34 1.34 0 0 0-.54-.8c-.44-.36-1.47-.54-3.14-.54h-.8a22.53 22.53 0 0 1-3.67-.23c-1.59-.27-2.58-.82-2.94-1.67a4.32 4.32 0 0 1-.29-1.58 3.51 3.51 0 0 1 1.36-3.2 6.13 6.13 0 0 1 2.59-.75c.59-.05 1.5-.06 2.79-.06zM201.75 62.74h-1.26a14 14 0 0 1-2-.1 5.56 5.56 0 0 1-2.13-.7 3.19 3.19 0 0 1-1.5-3v-1.05h2.55v.24a1.09 1.09 0 0 1-.06.34 4.68 4.68 0 0 0 .17 1.37 1.33 1.33 0 0 0 .46.69 2.55 2.55 0 0 0 1.4.35H202.87a6.58 6.58 0 0 0 2.88-.44 1.14 1.14 0 0 0 .52-.61 3.63 3.63 0 0 0 .19-1.26v-.17a3.43 3.43 0 0 0-.08-.87 1.19 1.19 0 0 0-.44-.67 6.46 6.46 0 0 0-3-.49h-.83a23.37 23.37 0 0 1-3.66-.22 6.13 6.13 0 0 1-2-.66 2.48 2.48 0 0 1-1.11-1.16 4.66 4.66 0 0 1-.3-1.67 3.77 3.77 0 0 1 1.45-3.4 6.6 6.6 0 0 1 2.7-.78c.51 0 1.35-.07 2.8-.08 2.72 0 4.44.26 5.26.77a3.18 3.18 0 0 1 1.42 2.94v.63h-2.51v-.24a6.8 6.8 0 0 0-.06-1 1.46 1.46 0 0 0-.4-.74 3.55 3.55 0 0 0-1.72-.48c-.32 0-1-.06-2-.06h-.5a16.19 16.19 0 0 0-2.32.11 3.79 3.79 0 0 0-1.11.39c-.3.19-.46.74-.45 1.57a2.85 2.85 0 0 0 .21 1.24 1.19 1.19 0 0 0 .62.61 8.82 8.82 0 0 0 3.06.38h1.28a19.71 19.71 0 0 1 3.13.17 4.8 4.8 0 0 1 1.69.6 2.78 2.78 0 0 1 1 1.09 5.1 5.1 0 0 1 .41 2.12c0 1.79-.57 3-1.68 3.54a8.69 8.69 0 0 1-3.46.65h-2.11z"/><path class="cls-1" d="M202 48.63c2.63 0 4.35.24 5.14.73a3 3 0 0 1 1.29 2.73v.38h-2a8 8 0 0 0-.06-1 1.69 1.69 0 0 0-.48-.86A3.55 3.55 0 0 0 204 50c-.29 0-1-.05-2-.05h-.5a15.49 15.49 0 0 0-2.36.11 3.87 3.87 0 0 0-1.19.42c-.38.23-.59.82-.58 1.78s.32 1.79 1 2.07a9 9 0 0 0 3.21.4h1.13a20.83 20.83 0 0 1 3.19.17 3.32 3.32 0 0 1 2.55 1.56 4.86 4.86 0 0 1 .36 2c0 1.69-.51 2.81-1.54 3.33a8.66 8.66 0 0 1-3.36.61h-3a14.53 14.53 0 0 1-2.29-.11 5.22 5.22 0 0 1-2-.66 2.93 2.93 0 0 1-1.37-2.78v-.81h2.08a1.44 1.44 0 0 1-.05.31c0 1.2.25 2 .73 2.29a2.77 2.77 0 0 0 1.57.4h3.37a6.87 6.87 0 0 0 3-.47c.55-.3.83-1 .84-2.09v-.08a4.13 4.13 0 0 0-.09-.93 1.39 1.39 0 0 0-.54-.8c-.44-.36-1.49-.53-3.14-.54h-.78a23.88 23.88 0 0 1-3.67-.22c-1.62-.28-2.59-.84-2.95-1.68a4.35 4.35 0 0 1-.28-1.59 3.51 3.51 0 0 1 1.34-3.19 6.05 6.05 0 0 1 2.6-.74c.46-.05 1.39-.07 2.72-.08zM28 8.33c21.74-6.7 44 2.86 49.67 21.34a30.67 30.67 0 0 1 .78 14.69 31.35 31.35 0 0 0 1-20.87C73.74 5 51.53-4.56 29.79 2.14 13.79 7.07 2.53 19.47 0 33.05 4.34 22 14.49 12.5 28 8.33z"/><path d="M40.93 43.68C46.08 26.4 71.4 11.09 97.5 9.48A59.73 59.73 0 0 1 115.94 11C109.39 8.08 100.85 6.65 91 7.25 64.91 8.87 39.6 24.18 34.45 41.46c-3.78 12.75 4.48 23 19.54 26.86-10.85-4.86-16.26-13.85-13.06-24.64z"/></g></g></symbol><symbol id="logo_w" viewBox="0 0 209 68.32"><g id="&#x30EC;&#x30A4;&#x30E4;&#x30FC;_2" data-name="&#x30EC;&#x30A4;&#x30E4;&#x30FC; 2"><g id="&#x30EC;&#x30A4;&#x30E4;&#x30FC;_1-2" data-name="&#x30EC;&#x30A4;&#x30E4;&#x30FC; 1"><path class="cls-1" d="M52.17 62.62V48.51h12.05v1.82h-9.56l-.01 4.17h9.15l-.01 1.78h-9.14v4.51h9.58l-.01 1.83H52.17z" style="fill: #fff;"/><path class="cls-1" d="M52.42 62.37V48.76H64v1.34h-9.58v4.66h9.14V56h-9.15v5H64v1.34zM79.51 62.62L78 59.76h-8.8l-1.39 2.86H65.2L72 48.51h3.16l7 14.11zM70.08 58h7.16l-3.64-7.42z" style="fill: #fff;"/><path class="cls-1" d="M72.12 48.75H75l6.77 13.62h-2.11l-1.47-2.86h-9.1l-1.39 2.86h-2.11zm-2.43 9.47h7.94L73.6 50zM83.11 48.51H92a11.61 11.61 0 0 1 2.61.25 4.23 4.23 0 0 1 1.76.8 4 4 0 0 1 1.16 3.23 5.84 5.84 0 0 1-.18 1.55 2.54 2.54 0 0 1-.57 1.11 2.62 2.62 0 0 1-1.06.72l-.36.12a3.55 3.55 0 0 1 .91.47 2.32 2.32 0 0 1 1 2v3.9h-2.52v-3.27a2.24 2.24 0 0 0-.58-1.73 3.86 3.86 0 0 0-2.31-.47h-6.24v5.43h-2.5zm8.71 6.81a4.31 4.31 0 0 0 2.62-.59A2.2 2.2 0 0 0 95 53v-.46a2.28 2.28 0 0 0-.45-1.64 2 2 0 0 0-.89-.39 7.22 7.22 0 0 0-1.61-.15h-6.36v5z" style="fill: #fff;"/><path class="cls-1" d="M92 48.75c2 0 3.4.33 4.21 1a3.73 3.73 0 0 1 1.07 3 3.65 3.65 0 0 1-.68 2.5 3.66 3.66 0 0 1-2.46 1 4.2 4.2 0 0 1 2 .69 2.07 2.07 0 0 1 .93 1.76v3.65H95v-3a2.45 2.45 0 0 0-.67-1.91 4 4 0 0 0-2.47-.54h-6.48v5.43h-2V48.75zm.07 1.34h-6.62v5.47h6.38a4.61 4.61 0 0 0 2.78-.63 2.48 2.48 0 0 0 .67-2v-.45a2.52 2.52 0 0 0-.52-1.82 4.19 4.19 0 0 0-2.69-.57zM100.05 48.51h2.55v12.28h9.13l.01 1.83h-11.69V48.51z" style="fill: #fff;"/><path class="cls-1" d="M100.29 48.75h2.07V61h9.13v1.34h-11.2zM114.32 62.62l.01-5.85-6.87-8.26h2.99l5.23 6.26 5.21-6.26h3.1l-7.12 8.27.01 5.84h-2.56z" style="fill: #fff;"/><path class="cls-1" d="M114.56 62.37v-5.69L108 48.75h2.36l5.34 6.41 5.32-6.4h2.46l-6.83 7.94v5.68zM136.84 62.73h-.17a8.2 8.2 0 0 1-1.94-.19 6.14 6.14 0 0 1-1.93-.88 3.36 3.36 0 0 1-1.18-1.53 4.7 4.7 0 0 1-.4-1.84v-5.37a4 4 0 0 1 1.22-3.15 4.5 4.5 0 0 1 1.38-.79 8.48 8.48 0 0 1 1.89-.44 30.06 30.06 0 0 1 3.68-.15H141.78a4.73 4.73 0 0 1 2.55.71 3.14 3.14 0 0 1 1.3 1.68 6.67 6.67 0 0 1 .23 1.84v.58h-2.55v-.77a2.15 2.15 0 0 0-.6-1.81 6.25 6.25 0 0 0-2.7-.43h-.38c-1.46 0-2.46 0-2.95.07a4.23 4.23 0 0 0-2.21.68 2.22 2.22 0 0 0-.69 1.81v4.48c0 1.63.31 2.67.91 3.08a2.93 2.93 0 0 0 .9.42 5.76 5.76 0 0 0 1.48.15h3.87a4.15 4.15 0 0 0 2.08-.52 1.24 1.24 0 0 0 .51-1.05c0-.28 0-.78.06-1.54v-.23h2.53v1a7 7 0 0 1-.16 1.64c-.37 1.31-1.48 2.11-3.3 2.4a20.89 20.89 0 0 1-2.5.16z" style="fill: #fff;"/><path class="cls-1" d="M143.52 53v-.53a2.29 2.29 0 0 0-.72-2A5.83 5.83 0 0 0 140 50h-.38c-1.49 0-2.48 0-3 .08a4.39 4.39 0 0 0-2.34.73 2.39 2.39 0 0 0-.78 2v4.48c0 1.72.35 2.82 1 3.29a3.74 3.74 0 0 0 1 .45 7.06 7.06 0 0 0 1.78.16h3.64a4.24 4.24 0 0 0 2.22-.56 1.5 1.5 0 0 0 .61-1.25q0-.37.06-1.56h2v.78a6.86 6.86 0 0 1-.14 1.58c-.35 1.22-1.38 2-3.1 2.23a19.6 19.6 0 0 1-2.47.15h-3.3a8.34 8.34 0 0 1-2.05-.19 5.91 5.91 0 0 1-1.86-.85 3 3 0 0 1-1.04-1.52 4.28 4.28 0 0 1-.38-1.74v-5.34a3.73 3.73 0 0 1 1.13-3 5.91 5.91 0 0 1 3.14-1.17 32 32 0 0 1 3.65-.14H141.74a4.49 4.49 0 0 1 2.42.67 2.9 2.9 0 0 1 1.21 1.55 6.23 6.23 0 0 1 .21 1.77v.4zM159.36 62.62v-3.23a2.17 2.17 0 0 0-.58-1.72 3.6 3.6 0 0 0-2.24-.48h-6.31v5.43h-2.51V48.51h8.88a11.64 11.64 0 0 1 2.62.25 4.07 4.07 0 0 1 1.75.8 2.83 2.83 0 0 1 .89 1.3 5.78 5.78 0 0 1 .28 1.93 5.89 5.89 0 0 1-.18 1.55 2.64 2.64 0 0 1-.57 1.12 2.82 2.82 0 0 1-1 .71l-.37.12a3.79 3.79 0 0 1 .92.47 2.32 2.32 0 0 1 1 2v3.9zm-2.93-7.3a4.37 4.37 0 0 0 2.62-.59 2.19 2.19 0 0 0 .58-1.76v-.46a2.26 2.26 0 0 0-.44-1.63 4 4 0 0 0-2.5-.55h-6.39v5z" style="fill: #fff;"/><path class="cls-1" d="M156.6 48.75c2 0 3.42.33 4.22 1a3.7 3.7 0 0 1 1.08 3 3.7 3.7 0 0 1-.69 2.5 3.65 3.65 0 0 1-2.45 1 4.2 4.2 0 0 1 2 .69 2.07 2.07 0 0 1 .93 1.76v3.65h-2.06v-3a2.34 2.34 0 0 0-.66-1.9 3.79 3.79 0 0 0-2.46-.55H150v5.43h-2V48.75zm.08 1.33h-6.62v5.47h6.37a4.57 4.57 0 0 0 2.77-.63 2.43 2.43 0 0 0 .68-2v-.45a2.42 2.42 0 0 0-.52-1.81 4.17 4.17 0 0 0-2.68-.58zM170.1 62.74a13.18 13.18 0 0 1-2.95-.28 4.77 4.77 0 0 1-2-.86 4.16 4.16 0 0 1-1.29-3.44v-4.84a8.61 8.61 0 0 1 .23-2.11 3.36 3.36 0 0 1 .7-1.43A3.49 3.49 0 0 1 166 49a7.18 7.18 0 0 1 1.71-.45 24.44 24.44 0 0 1 3.37-.14h.52a22.91 22.91 0 0 1 3 .14 4.64 4.64 0 0 1 2.9 1.22 3.18 3.18 0 0 1 .7 1.23 8.27 8.27 0 0 1 .31 2.48v4.7a4.83 4.83 0 0 1-1 3.14 4 4 0 0 1-2.51 1.21 16.37 16.37 0 0 1-2.86.22h-2.04zm-3.7-4.64a4.14 4.14 0 0 0 .2 1.46 1.73 1.73 0 0 0 .57.8 2.28 2.28 0 0 0 1 .42 10.82 10.82 0 0 0 1.88.12h2.09a16.24 16.24 0 0 0 1.71-.07 2.33 2.33 0 0 0 1.53-.56 2.94 2.94 0 0 0 .62-2.08V53a5.32 5.32 0 0 0-.08-1 1.91 1.91 0 0 0-.71-1.14 3 3 0 0 0-1.53-.49c-.57 0-1.3-.08-2.24-.08h-1.24a13.41 13.41 0 0 0-2 .11 1.87 1.87 0 0 0-1.69 1.77l-.09 1z" style="fill: #fff;"/><path class="cls-1" d="M171.18 48.64a25.19 25.19 0 0 1 3.39.13 4.41 4.41 0 0 1 2.75 1.14 2.67 2.67 0 0 1 .64 1.18 7.86 7.86 0 0 1 .3 2.41v4.7a4.55 4.55 0 0 1-1 3 3.75 3.75 0 0 1-2.26 1.09 16.49 16.49 0 0 1-2.82.21h-2.08c-2.27 0-3.87-.37-4.75-1.09a4 4 0 0 1-1.2-3.25v-4.84a5.16 5.16 0 0 1 .87-3.38 4.43 4.43 0 0 1 2.73-1.17 27.28 27.28 0 0 1 3.43-.13zM170.4 50a14.27 14.27 0 0 0-2.27.11 2.11 2.11 0 0 0-1.88 2l-.1 1v5a4.33 4.33 0 0 0 .23 1.55 2.12 2.12 0 0 0 1.75 1.34 10.46 10.46 0 0 0 1.93.13H172a16.28 16.28 0 0 0 1.89-.07 2.67 2.67 0 0 0 1.68-.63 3.24 3.24 0 0 0 .69-2.25V53a4.76 4.76 0 0 0-.09-1.1 2.36 2.36 0 0 0-2.45-1.81c-.59-.06-1.34-.08-2.26-.08zM185.74 62.74a19.37 19.37 0 0 1-2.34-.11 5.58 5.58 0 0 1-2.12-.7 2.9 2.9 0 0 1-1.12-1.21 4 4 0 0 1-.37-1.79c0-.12 0-.4.06-.82v-.22h2.56v.25a1 1 0 0 1-.06.34 4.65 4.65 0 0 0 .17 1.36 1.28 1.28 0 0 0 .46.69 2.56 2.56 0 0 0 1.42.36h3.33a6.7 6.7 0 0 0 2.89-.44 1.21 1.21 0 0 0 .52-.62 3.41 3.41 0 0 0 .19-1.26v-.17a3.11 3.11 0 0 0-.08-.85 1.09 1.09 0 0 0-.44-.66c-.27-.22-1-.49-3-.49H187a23.44 23.44 0 0 1-3.71-.23 6.25 6.25 0 0 1-2-.64 2.47 2.47 0 0 1-1.11-1.18 4.33 4.33 0 0 1-.31-1.67 3.77 3.77 0 0 1 1.46-3.41 6.47 6.47 0 0 1 2.7-.78c.52-.05 1.33-.07 2.78-.07h.19c2.64 0 4.32.25 5.14.76a2.71 2.71 0 0 1 1.07 1.18 4 4 0 0 1 .36 1.77v.62H191v-.25a4.4 4.4 0 0 0-.08-1 1.19 1.19 0 0 0-.39-.72 3.44 3.44 0 0 0-1.71-.49 19.36 19.36 0 0 0-2-.06h-.52a15.29 15.29 0 0 0-2.3.11 3.54 3.54 0 0 0-1.12.4c-.3.17-.46.71-.46 1.56a3.08 3.08 0 0 0 .22 1.25 1.13 1.13 0 0 0 .6.6 9.54 9.54 0 0 0 3.14.38h1.23a18.37 18.37 0 0 1 3.11.17 4.78 4.78 0 0 1 1.7.6 2.79 2.79 0 0 1 1 1.11 4.92 4.92 0 0 1 .37 2.12 5.33 5.33 0 0 1-.4 2.21 2.74 2.74 0 0 1-1.27 1.33 8.64 8.64 0 0 1-3.45.65h-3.02z" style="fill: #fff;"/><path class="cls-1" d="M186.84 48.64c2.64 0 4.36.23 5.14.72a2.94 2.94 0 0 1 1.31 2.74v.37h-2a5.17 5.17 0 0 0-.08-1 1.61 1.61 0 0 0-.47-.86 3.61 3.61 0 0 0-1.85-.55c-.31 0-1-.05-2-.05h-.52a17 17 0 0 0-2.35.11 4.22 4.22 0 0 0-1.2.42c-.38.23-.57.82-.57 1.78s.32 1.8 1 2.07a9.23 9.23 0 0 0 3.23.4h1.11a19.34 19.34 0 0 1 3.19.17 3.32 3.32 0 0 1 2.57 1.58 4.52 4.52 0 0 1 .34 2c0 1.69-.5 2.81-1.53 3.33a8.6 8.6 0 0 1-3.35.61h-3.01a16.39 16.39 0 0 1-2.31-.11 5.12 5.12 0 0 1-2-.66 3 3 0 0 1-1.49-2.78c0-.1 0-.37.05-.8h2.09a1.31 1.31 0 0 1-.06.31c0 1.2.24 2 .74 2.29a2.7 2.7 0 0 0 1.55.41H187.73a6.86 6.86 0 0 0 3-.47c.54-.3.84-1 .83-2.1v-.17a3.7 3.7 0 0 0-.08-.93 1.34 1.34 0 0 0-.54-.8c-.44-.36-1.47-.54-3.14-.54h-.8a22.53 22.53 0 0 1-3.67-.23c-1.59-.27-2.58-.82-2.94-1.67a4.32 4.32 0 0 1-.29-1.58 3.51 3.51 0 0 1 1.36-3.2 6.13 6.13 0 0 1 2.59-.75c.59-.05 1.5-.06 2.79-.06zM201.75 62.74h-1.26a14 14 0 0 1-2-.1 5.56 5.56 0 0 1-2.13-.7 3.19 3.19 0 0 1-1.5-3v-1.05h2.55v.24a1.09 1.09 0 0 1-.06.34 4.68 4.68 0 0 0 .17 1.37 1.33 1.33 0 0 0 .46.69 2.55 2.55 0 0 0 1.4.35H202.87a6.58 6.58 0 0 0 2.88-.44 1.14 1.14 0 0 0 .52-.61 3.63 3.63 0 0 0 .19-1.26v-.17a3.43 3.43 0 0 0-.08-.87 1.19 1.19 0 0 0-.44-.67 6.46 6.46 0 0 0-3-.49h-.83a23.37 23.37 0 0 1-3.66-.22 6.13 6.13 0 0 1-2-.66 2.48 2.48 0 0 1-1.11-1.16 4.66 4.66 0 0 1-.3-1.67 3.77 3.77 0 0 1 1.45-3.4 6.6 6.6 0 0 1 2.7-.78c.51 0 1.35-.07 2.8-.08 2.72 0 4.44.26 5.26.77a3.18 3.18 0 0 1 1.42 2.94v.63h-2.51v-.24a6.8 6.8 0 0 0-.06-1 1.46 1.46 0 0 0-.4-.74 3.55 3.55 0 0 0-1.72-.48c-.32 0-1-.06-2-.06h-.5a16.19 16.19 0 0 0-2.32.11 3.79 3.79 0 0 0-1.11.39c-.3.19-.46.74-.45 1.57a2.85 2.85 0 0 0 .21 1.24 1.19 1.19 0 0 0 .62.61 8.82 8.82 0 0 0 3.06.38h1.28a19.71 19.71 0 0 1 3.13.17 4.8 4.8 0 0 1 1.69.6 2.78 2.78 0 0 1 1 1.09 5.1 5.1 0 0 1 .41 2.12c0 1.79-.57 3-1.68 3.54a8.69 8.69 0 0 1-3.46.65h-2.11z" style="fill: #fff;"/><path class="cls-1" d="M202 48.63c2.63 0 4.35.24 5.14.73a3 3 0 0 1 1.29 2.73v.38h-2a8 8 0 0 0-.06-1 1.69 1.69 0 0 0-.48-.86A3.55 3.55 0 0 0 204 50c-.29 0-1-.05-2-.05h-.5a15.49 15.49 0 0 0-2.36.11 3.87 3.87 0 0 0-1.19.42c-.38.23-.59.82-.58 1.78s.32 1.79 1 2.07a9 9 0 0 0 3.21.4h1.13a20.83 20.83 0 0 1 3.19.17 3.32 3.32 0 0 1 2.55 1.56 4.86 4.86 0 0 1 .36 2c0 1.69-.51 2.81-1.54 3.33a8.66 8.66 0 0 1-3.36.61h-3a14.53 14.53 0 0 1-2.29-.11 5.22 5.22 0 0 1-2-.66 2.93 2.93 0 0 1-1.37-2.78v-.81h2.08a1.44 1.44 0 0 1-.05.31c0 1.2.25 2 .73 2.29a2.77 2.77 0 0 0 1.57.4h3.37a6.87 6.87 0 0 0 3-.47c.55-.3.83-1 .84-2.09v-.08a4.13 4.13 0 0 0-.09-.93 1.39 1.39 0 0 0-.54-.8c-.44-.36-1.49-.53-3.14-.54h-.78a23.88 23.88 0 0 1-3.67-.22c-1.62-.28-2.59-.84-2.95-1.68a4.35 4.35 0 0 1-.28-1.59 3.51 3.51 0 0 1 1.34-3.19 6.05 6.05 0 0 1 2.6-.74c.46-.05 1.39-.07 2.72-.08zM28 8.33c21.74-6.7 44 2.86 49.67 21.34a30.67 30.67 0 0 1 .78 14.69 31.35 31.35 0 0 0 1-20.87C73.74 5 51.53-4.56 29.79 2.14 13.79 7.07 2.53 19.47 0 33.05 4.34 22 14.49 12.5 28 8.33z" style="fill: #fff;"/><path d="M40.93 43.68C46.08 26.4 71.4 11.09 97.5 9.48A59.73 59.73 0 0 1 115.94 11C109.39 8.07 100.85 6.65 91 7.25 64.91 8.87 39.6 24.18 34.45 41.46c-3.78 12.75 4.48 23 19.54 26.86-10.85-4.86-16.26-13.85-13.06-24.64z"/></g></g></symbol><symbol id="mail" viewBox="0 0 512 384.5"><path class="st0" d="M512 232.2l-66.1-68.7 66.1-56.9zM66.2 163.5L0 232.3V106.6zM512 294.6v63.2c0 15.3-12.4 27.7-27.7 27.7H27.7C12.4 385.5 0 373.1 0 357.8v-63.2l99-102.7 113 97.4c11.8 10.1 27.4 15.7 44 15.7s32.3-5.6 44.1-15.7l113-97.4L512 294.6z"/><path class="st0" d="M512 28.1v27.7l-241.4 208c-7.8 6.7-21.4 6.7-29.1 0L0 55.8V28.1C0 12.8 12.4.5 27.7.5h456.6C499.6.5 512 12.8 512 28.1z"/></symbol><symbol id="note"><path class="st0" d="M412.875 59.063c-54.219 0-111.531 24.063-144.047 62.047v331.828c32.516-38 89.828-62.063 144.047-62.063H512V59.063h-99.125zM99.125 59.063H0v331.813h99.125c54.219 0 111.531 24.063 144.047 62.063v-331.83c-32.516-37.984-89.828-62.046-144.047-62.046z"/></symbol><symbol id="pdf_icon" viewBox="0 0 417.3 512"><path class="st0" d="M331.4 0H148.1l-9.3 9.3L10 138.1l-9.3 9.3v278.7c0 47.4 38.5 85.9 85.9 85.9h244.8c47.4 0 85.9-38.5 85.9-85.9V85.9c0-47.4-38.5-85.9-85.9-85.9zm54.1 426.1c0 29.9-24.2 54.1-54.1 54.1H86.6c-29.9 0-54.1-24.2-54.1-54.1V160.6h83.7c24.9 0 45.1-20.2 45.1-45.1V31.8h170.1c29.9 0 54.1 24.2 54.1 54.1v340.2z"/><path class="st0" d="M124.9 252.8H96.4c-5.4 0-8.7 3.5-8.7 8.8v73.8c0 6.4 4.2 10.6 10 10.6 5.7 0 9.9-4.2 9.9-10.6V313c0-.5.3-.8.8-.8h16.4c20.1 0 32.2-12.2 32.2-29.6.1-17.7-11.8-29.8-32.1-29.8zm-1.2 42.1h-15.2c-.5 0-.8-.3-.8-.8v-23.2c0-.5.3-.8.8-.8h15.2c8.4 0 13.4 5 13.4 12.5.1 7.4-5 12.3-13.4 12.3zM203.2 252.8h-21.9c-5.4 0-8.7 3.5-8.7 8.8v74.8c0 5.3 3.3 8.7 8.7 8.7h21.9c19.7 0 31.9-6.2 36.8-21.3 1.8-5.3 2.7-11.7 2.7-24.9s-1-19.6-2.7-24.9c-4.9-15-17.1-21.2-36.8-21.2zm17.7 64.1c-2.3 7.3-9 10.5-18.2 10.5h-9.2c-.5 0-.8-.3-.8-.8v-55.1c0-.5.3-.8.8-.8h9.2c9.2 0 15.9 3.1 18.2 10.5 1 3.1 1.6 8.6 1.6 17.9 0 9.2-.7 14.7-1.6 17.8zM314.2 252.8h-44.8c-5.4 0-8.7 3.5-8.7 8.8v73.8c0 6.4 4.2 10.6 10.1 10.6 5.7 0 9.9-4.2 9.9-10.6V309c0-.5.3-.8.8-.8h26.1c5.8 0 9.2-3.5 9.2-8.6 0-5-3.4-8.6-9.2-8.6h-26.1c-.5 0-.8-.3-.8-.8v-19.4c0-.5.3-.8.8-.8h32.7c5.6 0 9.2-3.7 9.2-8.6 0-4.9-3.7-8.6-9.2-8.6z"/></symbol><symbol id="strong01" viewBox="0 0 150 126.78"><g data-name="&#x30EC;&#x30A4;&#x30E4;&#x30FC; 2"><g data-name="1"><path d="M35.94 33a15.29 15.29 0 1 0-15.29-15.29A15.3 15.3 0 0 0 35.94 33z"/><path d="M79.29 33.83L89.45 22.7l18.34-5.4a3.34 3.34 0 0 0 .72.83l2 1.53 1.84-2.42-1.25-.95a8.19 8.19 0 0 0 5.2-9.1s.06-.06.1-.06a.47.47 0 0 1 .38.1l2 1.53 1.84-2.42-2-1.54a3.57 3.57 0 0 0-2.62-.69 4.26 4.26 0 0 0-.76.26 8.17 8.17 0 0 0-8.68-3.8L86.88 4.8a20.84 20.84 0 0 0-9.24 4.6l-17 14.71 5.91 25.69-23.49-10.5-14.15 12.24-22.24 3.93a8.23 8.23 0 1 0 3.12 16.16l20.74-1.73a20.89 20.89 0 0 0 11-4.45L53.1 57l12.83 14-13.82 11a11.5 11.5 0 0 0-.59 17.2L82.68 124a9.23 9.23 0 0 0 13.14-13L71.51 90.62l18.56-9.82L129 123.44a9.23 9.23 0 0 0 13.84-12.22z"/><path d="M57.45 43.18l5.77 2.57-1.42-6.14-9.7-10.47-4.21 3.72 9.56 10.32zM108.75 33.28l2.54 1.93 12.81-11.44-.22-.16a1.61 1.61 0 0 1-.3-2.24l2.16-2.84a1.6 1.6 0 0 1 2.24-.3l.22.16 7.62-15.5L133.31 1a4.79 4.79 0 0 0-6.72.91l-18.76 24.66a4.79 4.79 0 0 0 .92 6.71z"/><path d="M148.11 12.23l-10.39-7.9-7.63 15.5 2.52 1.92a1.6 1.6 0 0 1 .31 2.24l-2.16 2.84a1.6 1.6 0 0 1-2.24.3L126 25.21l-12.81 11.44 10.36 7.88a4.8 4.8 0 0 0 6.72-.91L149 18.94a4.78 4.78 0 0 0-.89-6.71z"/><path d="M124.986 22.321l2.046-2.69 4.489 3.416-2.047 2.69z"/></g></g></symbol><symbol id="strong02" viewBox="0 0 150 150"><g data-name="&#x30EC;&#x30A4;&#x30E4;&#x30FC; 2"><g data-name="1"><path d="M23.5 33.3c10.41 0 12.5-8.1 12.5-12.51v-4.27C36 12.11 33.91 4 23.5 4S11 12.11 11 16.52v4.27c0 4.41 2.09 12.51 12.5 12.51zM72.16 54.12l-17.34 8.51-9.51-15.52C42.52 42.55 38.92 39 33.8 39h-19C6.62 39 0 46.16 0 55v46h10v49h9.89L26 105.51 32.11 150H42V67.82l8.37 9.69 26.46-16.37z"/><path d="M150 14V7h-45V0h-9v7H51v7h5v41l.82 1.25L61 54.37V14h80v70H61v-7.79l-5 2.89V84h-5v7h47v18.89l-15.64 30.67a4.62 4.62 0 1 0 5.1 4.59 4.55 4.55 0 0 0-.83-2.64L98 120v23h5v-22.45l11.69 22.08a4.64 4.64 0 1 0 4.2-2.08L103 110.45V91h47v-7h-5V14z"/><path d="M108 24.2v19l17.91-6.33A19 19 0 0 0 108 24.2z"/><path d="M82 54.43a19 19 0 0 0 37.63 3.77 18.64 18.64 0 0 0-.71-10.09L101 54.43v-19a19 19 0 0 0-19 19z"/></g></g></symbol><symbol id="strong03" viewBox="0 0 150 134.47"><g data-name="&#x30EC;&#x30A4;&#x30E4;&#x30FC; 2"><g data-name="1"><path d="M0 132.47h150v2H0zM33 105.67v17.8h23v-23.39a202.54 202.54 0 0 1-23 5.59zM2 108.87v14.6h23v-16.62a211.35 211.35 0 0 1-23 2.02zM63 97.68v25.79h23V87.94a194.2 194.2 0 0 1-23 9.74zM94 84.13v39.34h23V68.91a182.81 182.81 0 0 1-23 15.22zM124 63.09v60.38h23V38.86a168 168 0 0 1-23 24.23zM121 9l8.1 6.79C103.4 47.87 54.31 88.52 0 94.57v6.49c53.87-1.91 111.65-38.81 141.66-74.76l8.34 7V0z"/></g></g></symbol><symbol id="tel" viewBox="0 0 512 421.8"><path class="st0" d="M337.5 162.9V83.2l-42.8 7.7v32.8h-77.3V90.8l-42.8-7.7v79.7h-50.9L65.6 290v114.1c0 10.9 8 19.7 17.9 19.7h345.1c9.9 0 17.9-8.8 17.9-19.7V290l-58.8-127.1h-50.2zm-81.5 204c-39.9 0-72.3-32.4-72.3-72.3s32.4-72.3 72.3-72.3 72.3 32.4 72.3 72.3-32.4 72.3-72.3 72.3z"/><path class="st0" d="M434 26.9C395.5 10.6 310.8 1 256 1c-53 0-139.5 9.6-178 25.9C39 43.4 0 80.4 0 124c0 23.9 11.9 38.1 14.8 41.4h82.9c4.9 0 15.7-21.4 15.7-30.2 0-15.4-8.1-36.8-8.1-36.8.5-10.6 4.7-18.3 21.9-25.7 31.3-13.4 100-14 128.8-14 28.8 0 97.6.6 128.8 14 17.2 7.4 21.4 15.1 21.9 25.7 0 0-8.1 21.4-8.1 36.8 0 8.7 10.8 30.2 15.7 30.2h82.9c2.8-3.3 14.8-17.5 14.8-41.4 0-43.6-39-80.6-78-97.1z"/></symbol><symbol id="twitter"><path d="M23 3a10.9 10.9 0 0 1-3.14 1.53 4.48 4.48 0 0 0-7.86 3v1A10.66 10.66 0 0 1 3 4s-4 9 5 13a11.64 11.64 0 0 1-7 2c9 5 20 0 20-11.5a4.5 4.5 0 0 0-.08-.83A7.72 7.72 0 0 0 23 3z"/></symbol><symbol id="_instagram" viewBox="0 0 22 22"><path class="st0" d="M6 1h10c2.8 0 5 2.2 5 5v10c0 2.8-2.2 5-5 5H6c-2.8 0-5-2.2-5-5V6c0-2.8 2.2-5 5-5z"/><path class="st0" d="M15 10.4c.3 2.2-1.2 4.2-3.4 4.5-2.2.3-4.2-1.2-4.5-3.4-.3-2.1 1.2-4.2 3.4-4.5.4-.1.8-.1 1.2 0 1.7.3 3 1.6 3.3 3.4z"/><circle cx="17.1" cy="5.3" r="1.2"/></symbol></svg>