<svg xmlns="http://www.w3.org/2000/svg" class="u-svg is-svg_hide" role="img"><symbol id="arrow-up" viewBox="0 0 20 20"><path d="M9 3.828L2.929 9.899 1.515 8.485 10 0l.707.707 7.778 7.778-1.414 1.414L11 3.828V20H9V3.828z" class=""/></symbol><symbol id="facebookIcon" viewBox="0 0 200 200"><path id="facebook_1_" class="" d="M189.6 0h-178C5.5 0 0 4.9 0 11v177.9C0 195 5.5 200 11.6 200H107v-77H81V92h26V70.1c0-25.8 15.7-39.9 38.8-39.9 11 0 21.2.8 23.2 1.2v27h-16c-12.5 0-15 6-15 14.7V92h30.5l-3.9 31H138v77h51.6c6.1 0 10.4-5 10.4-11.1V11c0-6.1-4.3-11-10.4-11z"/></symbol><symbol id="facebookIcon2" viewBox="0 0 104 200"><path id="facebook_x5F_2_1_" class="" d="M67 200v-91h31.6l4.6-36H67V50.7c0-10.3 3.2-17.3 17.9-17.3H104V1.6C101 1.2 89.6 0 76.6 0 49.5 0 31 16.8 31 47.1V73H0v36h31v91h36z"/></symbol><symbol id="folder" viewBox="0 0 20 20"><path d="M0 4c0-1.1.9-2 2-2h7l2 2h7a2 2 0 0 1 2 2v10a2 2 0 0 1-2 2H2a2 2 0 0 1-2-2V4z" class=""/></symbol><symbol id="hatenaIcon" viewBox="0 0 200 200"><g id="hatena_1_"><path class="" d="M85.9 91.8c2.2-1.3 3.3-3.6 3.3-6.8 0-3.3-1-5.6-3.1-7-2.1-1.3-6.1-2-12-2H69v18h4.8c5.8 0 9.9-.9 12.1-2.2zM89.6 111.3c-2.1-1.5-6.1-2.3-11.9-2.3H69v19h8.3c5.6 0 9.6-.6 12-2 2.4-1.4 3.5-3.8 3.5-7.1 0-3.6-1-6.2-3.2-7.6z"/><path class="" d="M170.4 0H29.2C13 0 0 13.5 0 29.7v141.2C0 187.2 13 200 29.2 200h141.2c16.2 0 29.6-12.8 29.6-29.1V29.7C200 13.5 186.6 0 170.4 0zM129 56h21v59h-21V56zm-16.5 75.4c-2 3.5-4.8 6.3-8.4 8.2-3 1.6-6.6 2.7-11 3.4-4.4.7-11.5 1-21.5 1H47V57h23.8c9.9 0 16.7.1 20.7.8 3.9.6 7.3 1.6 10.1 3.2 3.2 1.8 5.7 4.1 7.4 7.1 1.7 3 2.5 6.5 2.5 10.4 0 5-1.3 8.9-3.8 11.8-2.5 2.9-6.6 5.1-12.1 6.7 6.2.5 11.1 2.7 14.5 6.6 3.5 3.9 5.2 9.1 5.2 15.6.1 4.5-.9 8.6-2.8 12.2zm27 13.1c-6.5 0-11.8-5.3-11.8-11.8 0-6.5 5.3-11.8 11.8-11.8 6.5 0 11.8 5.3 11.8 11.8 0 6.5-5.3 11.8-11.8 11.8z"/></g></symbol><symbol id="hatenaIcon2" viewBox="0 0 200 169"><g id="hatena_x5F_2_1_"><path class="" d="M157.7 0h39.4v112.7h-39.4zM121.2 90.5c-6.7-7.5-16-11.7-27.9-12.6 10.6-2.9 18.3-7.1 23.1-12.7 4.8-5.6 7.2-13.1 7.2-22.6 0-7.5-1.6-14.2-4.8-19.9-3.3-5.7-8-10.3-14.1-13.7-5.4-3-11.8-5.1-19.3-6.3C78 1.4 64.8.8 45.9.8H0v167.5h47.3c19 0 32.7-.7 41.1-1.9 8.4-1.3 15.4-3.5 21.1-6.6 7-3.7 12.4-9 16.1-15.8 3.8-6.8 5.6-14.7 5.6-23.6.1-12.5-3.3-22.5-10-29.9zM42.4 37.9h9.8c11.3 0 18.9 1.3 22.9 3.8C79 44.3 81 48.7 81 55c0 6.1-2.1 10.3-6.3 12.8-4.2 2.5-11.9 3.7-23.1 3.7h-9.1V37.9zm38.9 96c-4.5 2.7-12.1 4.1-22.9 4.1h-16v-36.6H59c11.1 0 18.7 1.4 22.8 4.2 4.1 2.8 6.2 7.7 6.2 14.8 0 6.3-2.2 10.8-6.7 13.5zM177.5 123.9c-12.5 0-22.5 10.1-22.5 22.5 0 12.5 10.1 22.5 22.5 22.5s22.5-10.1 22.5-22.5-10.1-22.5-22.5-22.5z"/></g></symbol><symbol id="logo" viewBox="0 0 557.14 99.12"><path d="M25.66 7.52v17.6h13.56v9.6H25.66v45.12q0 4.37 1.81 6.56t6.18 2.18a30.1 30.1 0 0 0 5.91-.81v10a36.23 36.23 0 0 1-9.54 1.33q-8.33 0-12.56-5t-4.23-14.3V34.72H0v-9.6h13.23V7.52zM43.56 60.78a42.91 42.91 0 0 1 4.2-19.21A31.3 31.3 0 0 1 59.4 28.41a31.81 31.81 0 0 1 17.09-4.63q14.84 0 24 10.27t9.17 27.33v.84a43.28 43.28 0 0 1-4.06 19 30.84 30.84 0 0 1-11.58 13.2 32.17 32.17 0 0 1-17.36 4.7q-14.77 0-23.94-10.27t-9.17-27.2zm12.49 1.44q0 12.09 5.61 19.41a17.94 17.94 0 0 0 15 7.32 17.84 17.84 0 0 0 15-7.42q5.57-7.42 5.57-20.78 0-12-5.67-19.37a18 18 0 0 0-15.08-7.42 17.84 17.84 0 0 0-14.84 7.32q-5.59 7.34-5.59 20.94zM133.57 0l32 79.78L197.5 0h16.72v97.78h-12.89V59.7l1.21-41.1-32.14 79.18h-9.87l-32-79 1.28 40.9v38.1h-12.89V0zM254.87 99.12q-14.77 0-24-9.7t-9.27-26v-2.2a43.6 43.6 0 0 1 4.13-19.31 32.22 32.22 0 0 1 11.55-13.3 29 29 0 0 1 16.08-4.8q14.17 0 22 9.33t7.86 26.73v5.17h-49.23q.27 10.74 6.28 17.36a19.73 19.73 0 0 0 15.28 6.61 21.64 21.64 0 0 0 11.15-2.69 28 28 0 0 0 8-7.12l7.59 5.91q-9.15 14.01-27.42 14.01zm-1.54-65.14a16.57 16.57 0 0 0-12.62 5.47q-5.1 5.47-6.31 15.34h36.4v-.94q-.54-9.47-5.1-14.67t-12.37-5.2zM302.4 25.12l.34 8.06q8-9.4 21.56-9.4 15.24 0 20.75 11.68a27.52 27.52 0 0 1 9.43-8.46 27.87 27.87 0 0 1 13.73-3.22q23.91 0 24.31 25.32v48.68h-12.43V49.83q0-7.79-3.56-11.65t-12-3.86a16.47 16.47 0 0 0-11.48 4.13 16.75 16.75 0 0 0-5.31 11.11v48.22h-12.45V50.17q0-15.85-15.51-15.85-12.22 0-16.72 10.41v53.05h-12.42V25.12zM399.7 60.78a42.92 42.92 0 0 1 4.2-19.21 31.31 31.31 0 0 1 11.68-13.16 31.81 31.81 0 0 1 17.09-4.63q14.84 0 24 10.27t9.17 27.33v.84a43.29 43.29 0 0 1-4.06 19 30.85 30.85 0 0 1-11.61 13.2 32.18 32.18 0 0 1-17.36 4.7q-14.77 0-23.94-10.27t-9.17-27.2zm12.49 1.44q0 12.09 5.61 19.41a19 19 0 0 0 30.05-.1q5.55-7.39 5.55-20.75 0-12-5.67-19.37a18 18 0 0 0-15.08-7.42 17.84 17.84 0 0 0-14.84 7.32q-5.62 7.31-5.62 20.91z" class=""/><path d="M538.69 95.58l-64.92-12.75 15.52-79 64.92 12.75zm-43.91-80l49.87 9.79m-51.84.25l25.4 5m-27.38 5l39.57 7.84m-41.49 2.28l49.87 9.79m-51.84.25l49.87 9.79m-51.84.25l25.4 5m22.49 14.84l-49.87-9.79" stroke="#fff" stroke-miterlimit="10" stroke-width="5" class="" fill="rgba(0, 0, 0, 0)"/></symbol><symbol id="search" viewBox="0 0 20 20"><path fill-rule="nonzero" d="M12.9 14.32a8 8 0 1 1 1.41-1.41l5.35 5.33-1.42 1.42-5.33-5.34zM8 14A6 6 0 1 0 8 2a6 6 0 0 0 0 12z" class=""/></symbol><symbol id="searchIcon" viewBox="0 0 200 200"><path d="M200 191.2l-53.6-53.6c12.6-14.6 20.2-33.5 20.2-54.3 0-46-37.3-83.3-83.3-83.3S0 37.3 0 83.3s37.3 83.3 83.3 83.3c20.8 0 39.7-7.6 54.3-20.2l53.6 53.6 8.8-8.8zM13.3 83.3c0-38.7 31.3-70 70-70s70 31.3 70 70c0 19.3-7.8 36.8-20.5 49.5-12.7 12.7-30.2 20.5-49.5 20.5-38.6 0-70-31.3-70-70z" class=""/></symbol><symbol id="tag" viewBox="0 0 20 20"><path d="M0 10V2l2-2h8l10 10-10 10L0 10zm4.5-4a1.5 1.5 0 1 0 0-3 1.5 1.5 0 0 0 0 3z" class=""/></symbol><symbol id="twitterIcon" viewBox="0 0 246.1 200"><path id="twitter_1_" class="" d="M246.1 23.7c-9.1 4-18.8 6.7-29 8 10.4-6.2 18.4-16.1 22.2-27.9-9.8 5.8-20.6 10-32.1 12.3C198 6.1 184.9 0 170.4 0c-27.9 0-50.5 22.6-50.5 50.5 0 4 .4 7.8 1.3 11.5C79.2 59.9 42 39.8 17.1 9.2c-4.3 7.5-6.8 16.1-6.8 25.4 0 17.5 8.9 33 22.5 42-8.3-.3-16.1-2.5-22.9-6.3v.6c0 24.5 17.4 44.9 40.5 49.5-4.2 1.2-8.7 1.8-13.3 1.8-3.3 0-6.4-.3-9.5-.9 6.4 20.1 25.1 34.7 47.2 35.1C57.5 169.9 35.7 178 12 178c-4.1 0-8.1-.2-12-.7C22.3 191.6 48.9 200 77.4 200c92.9 0 143.7-76.9 143.7-143.7 0-2.2 0-4.4-.1-6.5 9.8-7.1 18.3-16 25.1-26.1z"/></symbol></svg>